<svg xmlns="http://www.w3.org/2000/svg" width="199.426" height="40.504"><path d="M20 7.737c-1.233-2.634-3.705-4.28-6.668-4.28-3.207 0-6.5 2.634-6.5 5.925 0 9.136 18.518 4.693 18.518 18.436 0 6.997-5.431 11.852-12.262 11.852C6.75 39.67 1.563 35.802 0 29.629l3.622-1.152c1.4 4.526 4.444 7.737 9.466 7.737 4.772 0 8.557-3.788 8.557-8.56 0-4.692-3.62-6.174-7.406-7.49C9.054 18.27 3.13 16.05 3.13 9.629 3.129 3.87 7.984 0 13.497 0c3.87 0 8.068 2.553 9.714 6.091zm50.037 12.427c-.245 9.63 6.422 16.05 15.225 16.05 5.929 0 10.701-3.54 13.419-8.643l3.127 1.811c-3.457 6.585-9.55 10.288-17.04 10.288-11.275 0-18.432-9.136-18.432-19.918C66.336 9.135 73.658 0 84.768 0c11.524 0 18.356 9.218 18.272 20.164H70.037m29.302-3.456c-.907-6.996-6.667-13.25-14.486-13.25-7.735 0-14.157 6.089-14.816 13.25zm12.672 3.456c-.245 9.63 6.418 16.05 15.225 16.05 5.928 0 10.7-3.54 13.414-8.643l3.131 1.811c-3.46 6.585-9.549 10.288-17.039 10.288-11.275 0-18.436-9.136-18.436-19.918C108.306 9.135 115.632 0 126.742 0c11.524 0 18.356 9.218 18.272 20.164H112.01m29.301-3.456c-.906-6.996-6.666-13.25-14.485-13.25-7.74 0-14.158 6.089-14.816 13.25zM157.69.587h-3.705v38.26h13.311v-3.7h-9.606zm24.651 39.917h3.632V23.746L199.426.677h-4.015L184.174 19.97 172.918.677h-4.022l13.445 23.07zM43.043 17.284L59.011.823h-4.773L38.6 16.955V.587h-3.705v38.26H38.6V21.974l2.059-2.14 18.846 19.013h4.856z" fill="#abb192"/></svg>